<?xml version="1.0" encoding="utf-8"?>
<!-- Generator: Adobe Illustrator 25.4.1, SVG Export Plug-In . SVG Version: 6.00 Build 0)  -->
<svg version="1.0" id="Layer_1" xmlns="http://www.w3.org/2000/svg" xmlns:xlink="http://www.w3.org/1999/xlink" x="0px" y="0px"
	 viewBox="0 0 595.3 841.9" style="enable-background:new 0 0 595.3 841.9;" xml:space="preserve">
<style type="text/css">
	.st0{fill:#171124;}
	.st1{fill:#FFFFFF;}
</style>
<polygon class="st0" points="-171.6,392.9 -178,379.9 -182.5,389.2 -175.8,389.2 -174,392.9 -188.8,392.9 -187,389.2 -187,389.2 
	-186.9,389.2 -178.2,371.7 -177.7,371.7 -167.1,392.9 "/>
<path class="st0" d="M-147.9,386.5l-1.6-2.9h4.8c-0.2-2.7-1.1-3.9-3.3-3.9c-1.8,0-3.6,1.5-3.6,4.9c0,3.4,1.2,4.9,4.6,4.9h4.6
	l1.8,3.6h-6.7c-5.6,0-8.4-2.4-8.4-8.5c0-6,3.3-8.4,7.5-8.4h0.4c4.2,0,7.3,2.4,7.3,8.4v2H-147.9z"/>
<path class="st0" d="M-157.4,389.3l1.7,3.6h-5.2c-3.3,0-4.9-1.6-4.9-5.3v-14.2h4v14.2c0,1.4,0.3,1.8,1.7,1.8H-157.4z"/>
<polygon class="st0" points="-156.9,379.6 -159.1,379.6 -160.7,376 -156.9,376 "/>
<polygon class="st0" points="-134.3,373.4 -136.9,373.4 -137.8,369.7 -133.3,369.7 "/>
<rect x="-137.5" y="376" class="st0" width="4" height="16.9"/>
<path class="st0" d="M-122.7,375.7c5,0,8.3,3.9,8.3,8.8c0,4.8-3.3,8.8-8.3,8.8c-5,0-8.3-3.9-8.3-8.8
	C-131,379.6-127.7,375.7-122.7,375.7z"/>
<path class="st0" d="M-102.9,376c4.3,0,5.9,2.4,5.9,6.2v10.7h-4v-10.4c0-1.8-0.6-2.9-2.6-2.9h-7l-1.8-3.6H-102.9z"/>
<rect x="-112" y="381.6" class="st0" width="4" height="11.3"/>
<path class="st0" d="M-225.6,361.8c4.3-4.3,10.1-3.8,10.1-3.8c-2.1,0.2-8,2-6.6,8.2c0.7,2.3,4.9,6.7,4.9,6.7l-4.6,5.3
	c-1.7-1.8-5.9-5.5-6.2-9.1C-228,368.4-228.3,364.6-225.6,361.8z"/>
<path class="st0" d="M-210.4,385.2c0,0,0.7-4.4,4.1-6.7c3.9-2.7,8-1.6,8.6-1.5c4.5,1.4,6,4.9,6.2,5.3c0.6,1.1,1.3,3.2,0.9,6
	c-0.7,4.1-3.7,6.3-4.2,6.7c-3,1.9-6.2,2.2-9.3,1c-2.6-1.1-3.7-2.5-3.7-2.5s1.4,1.5,5.8,1.3c0.2-0.1,4.5-0.4,6-5.8
	c0.8-3.1-1-6.4-2.5-7.5c-3.3-2.6-6.1-1.9-7.5-1.6C-209.7,381.1-210.4,385.2-210.4,385.2z"/>
<path class="st0" d="M-217.6,358.2c2-0.4,5-0.2,7.1,0.8c5.6,3,7.4,7.2,6.1,12.6c-0.4,1.6-1.4,2.9-2.8,4.5c-1,1.1-3.1,3.2-4,5
	c-0.9,1.8-1.9,4.2-1.5,8.1c0.1,1,0.3,1.9,0.6,2.7c0.9,2.5,2.6,4.7,4.9,6.2l2.5,1.7H-238c3.9-5.2,25.3-29.2,27-32
	c2.7-5.1-2.7-10.6-7.7-8.9c-2,0.7-2.7,2.3-3,2.5C-221.5,361.4-220.9,359.3-217.6,358.2z"/>
<path class="st0" d="M-278.7,168.5h226c1.7,0,3,1.3,3,3v76c0,1.7-1.3,3-3,3h-226c-1.7,0-3-1.3-3-3v-76
	C-281.7,169.8-280.4,168.5-278.7,168.5z"/>
<path class="st1" d="M-123,389.4c2.8,0,4.2-2.2,4.2-5c0-2.8-1.4-5-4.2-5c-2.8,0-4.2,2.2-4.2,5C-127.1,387.2-125.8,389.4-123,389.4z"
	/>
<path class="st1" d="M-213.1,396.7c-2.6,0-17.3,0-17.3,0l15.5-17.5c0,0-2.9,7.2-1.2,12.3C-214.7,395.5-212.9,396.7-213.1,396.7z"/>
<polygon class="st0" points="265.5,348.8 254.7,326.6 247,342.4 258.5,342.4 261.5,348.8 236.3,348.8 239.4,342.5 239.4,342.4 
	239.5,342.4 254.3,312.8 255.1,312.8 273.1,348.8 "/>
<path class="st0" d="M305.9,337.8l-2.7-5h8.2c-0.3-4.7-1.8-6.7-5.6-6.7c-3.1,0-6.1,2.5-6.1,8.3c0,5.8,2.1,8.3,7.9,8.3h7.9l3,6.1H307
	c-9.4,0-14.3-4.2-14.3-14.4c0-10.2,5.6-14.3,12.7-14.3h0.6c7.1,0,12.4,4.2,12.4,14.3v3.4H305.9z"/>
<path class="st0" d="M289.8,342.7l2.9,6.1h-8.8c-5.5,0-8.4-2.7-8.4-9v-24.1h6.9v24.1c0,2.3,0.5,3,2.8,3H289.8z"/>
<polygon class="st0" points="290.5,326.1 286.8,326.1 284.1,320.1 290.5,320.1 "/>
<polygon class="st0" points="329,315.6 324.6,315.6 323,309.2 330.6,309.2 "/>
<rect x="323.6" y="320.1" class="st0" width="6.8" height="28.7"/>
<path class="st0" d="M348.7,319.4c8.4,0,14.1,6.7,14.1,14.9c0,8.2-5.6,14.9-14.1,14.9c-8.5,0-14.1-6.7-14.1-14.9
	C334.6,326.1,340.2,319.4,348.7,319.4z"/>
<path class="st0" d="M382.3,320.1c7.3,0,10,4.2,10,10.5v18.2h-6.9V331c0-3-1-4.9-4.5-4.9h-11.9l-3-6.1H382.3z"/>
<rect x="366.9" y="329.6" class="st0" width="6.9" height="19.2"/>
<path class="st0" d="M173.8,295.9c7.3-7.4,17.3-6.5,17.2-6.5c-3.5,0.3-13.6,3.4-11.2,14c1.2,4,8.3,11.4,8.3,11.4l-7.8,9
	c-2.8-3-10-9.4-10.6-15.4C169.6,307,169.1,300.6,173.8,295.9z"/>
<path class="st0" d="M199.6,335.7c0,0,1.2-7.4,7-11.5c6.7-4.6,13.7-2.8,14.6-2.5c7.7,2.3,10.2,8.4,10.5,9c1,1.8,2.3,5.4,1.6,10.1
	c-1.1,7-6.3,10.7-7.2,11.3c-5.1,3.3-10.6,3.7-15.8,1.8c-4.4-1.8-6.3-4.3-6.3-4.3s2.4,2.6,9.9,2.2c0.3-0.1,7.6-0.6,10.2-9.8
	c1.4-5.3-1.8-10.8-4.2-12.7c-5.6-4.5-10.4-3.1-12.7-2.6C200.8,328.6,199.6,335.7,199.6,335.7z"/>
<path class="st0" d="M187.3,289.8c3.5-0.7,8.6-0.4,12.1,1.4c9.6,5.1,12.6,12.3,10.4,21.5c-0.7,2.6-2.3,4.9-4.7,7.6
	c-1.7,2-5.2,5.4-6.8,8.5c-1.6,3.1-3.2,7.2-2.5,13.8c0.1,1.7,0.5,3.2,1,4.6c1.5,4.3,4.4,7.9,8.3,10.6l4.3,2.9h-56.8
	c6.6-8.8,43-49.7,45.8-54.4c4.5-8.7-4.6-18.1-13-15.1c-3.4,1.2-4.6,3.9-5.1,4.3C180.6,295.1,181.7,291.5,187.3,289.8z"/>
<path class="st1" d="M348.3,342.9c4.8,0,7.1-3.8,7.1-8.5c0-4.7-2.3-8.5-7.1-8.5c-4.8,0-7.1,3.8-7.1,8.5
	C341.2,339.1,343.4,342.9,348.3,342.9z"/>
<path class="st1" d="M195,355.2c-4.3,0-29.4,0-29.4,0l26.3-29.7c0,0-5,12.2-2,21C192.2,353.1,195.4,355.2,195,355.2z"/>
</svg>
